<?xml version="1.0" encoding="UTF-8"?>
<svg version="1.1" xmlns="http://www.w3.org/2000/svg" width="1280" height="1280">
<path d="M0 0 C422.4 0 844.8 0 1280 0 C1280 422.4 1280 844.8 1280 1280 C857.6 1280 435.2 1280 0 1280 C0 857.6 0 435.2 0 0 Z " fill="#9996EB" transform="translate(0,0)"/>
<path d="M0 0 C2.31 0.33 4.62 0.66 7 1 C7.15855469 1.92554688 7.31710938 2.85109375 7.48046875 3.8046875 C7.71564143 5.16154585 7.95137265 6.51830746 8.1875 7.875 C8.37953003 8.98198242 8.37953003 8.98198242 8.57543945 10.11132812 C9.42786123 14.95429948 10.34570047 19.78006656 11.3125 24.6015625 C11.5391333 25.74125488 11.7657666 26.88094727 11.99926758 28.05517578 C12.45031165 30.31279617 12.90823703 32.56905511 13.3737793 34.82373047 C14.60507624 41.01461422 15.24531889 46.68801138 15 53 C15.66 53 16.32 53 17 53 C17.04125 52.175 17.0825 51.35 17.125 50.5 C18.90061477 43.39754092 23.97241248 38.36680061 29.8671875 34.25390625 C35.94651997 30.67979321 42.95587714 28.64433862 50 30 C55.34480525 33.02536146 57.27950275 36.72310608 59.30859375 42.4453125 C61.07104802 48.95743166 60.21003433 54.00793591 57 60 C52.67570079 67.11014581 47.27092339 72.21260174 39.29296875 74.91796875 C32.94047939 76.38392783 27.7712436 76.1915817 22 73 C17.61791738 69.16567771 17.37600553 65.54608158 17 60 C16.525625 60.515625 16.05125 61.03125 15.5625 61.5625 C11.5565953 63.80971483 8.33976414 63.18419432 4 62 C-3.48934069 58.95201251 -8.61146082 53.5438999 -14.09692383 47.83569336 C-20.50499781 41.26483859 -27.25545527 36.83320544 -36 34 C-35.84853516 34.86165771 -35.69707031 35.72331543 -35.54101562 36.61108398 C-34.97587319 39.84739386 -34.41760739 43.08474202 -33.86376953 46.32299805 C-33.62394844 47.71701852 -33.38149559 49.11058916 -33.13623047 50.50366211 C-30.36577347 66.26134307 -30.36577347 66.26134307 -31 73 C-34 75 -34 75 -36.6875 74.625 C-37.450625 74.41875 -38.21375 74.2125 -39 74 C-44.62461541 58.51339075 -48.00037121 40.13848384 -44 24 C-42.47827113 22.47827113 -41.12019862 22.75743711 -39 22.6875 C-25.54765736 22.94211847 -15.77141623 34.12355024 -6.6796875 42.859375 C-3.05478373 45.75507072 0.90228113 47.84705561 5 50 C4.02244895 38.54540181 2.89107049 27.17827203 0.96557617 15.83886719 C0.09160259 10.49048608 -0.11879413 5.42133233 0 0 Z " fill="#FAFAFF" transform="translate(186,601)"/>
<path d="M0 0 C8.76021259 3.35645665 12.77100728 14.60732282 16.42333984 22.60107422 C19.67023987 29.95222766 22.59298426 37.43441154 25.45703125 44.94140625 C25.88113281 46.05128906 26.30523438 47.16117188 26.7421875 48.3046875 C27.68501528 50.83920933 28.5855221 53.38161127 29.45703125 55.94140625 C29.90369141 57.20984375 29.90369141 57.20984375 30.359375 58.50390625 C32.24274573 64.19741409 32.74705688 68.94754317 32.45703125 74.94140625 C29.98203125 75.43640625 29.98203125 75.43640625 27.45703125 75.94140625 C24.85992031 72.51718991 23.25345115 69.70418253 22.203125 65.5234375 C20.31611517 58.27275893 20.31611517 58.27275893 16.45703125 51.94140625 C10.72068209 48.8298673 3.84079514 48.9164263 -2.54296875 48.94140625 C-3.25324219 48.93657227 -3.96351563 48.93173828 -4.6953125 48.92675781 C-6.31118874 48.91944248 -7.9271285 48.92837528 -9.54296875 48.94140625 C-9.69854248 49.53977295 -9.85411621 50.13813965 -10.0144043 50.75463867 C-12.97395588 62.06392697 -15.9486693 73.16716419 -20.54296875 83.94140625 C-21.53296875 83.94140625 -22.52296875 83.94140625 -23.54296875 83.94140625 C-30.92891122 69.16952131 -20.87549962 39.42757273 -16.25390625 24.75 C-7.77528474 -0.17915403 -7.77528474 -0.17915403 0 0 Z " fill="#F9F9FF" transform="translate(646.54296875,593.05859375)"/>
<path d="M0 0 C2.47081263 2.24900311 3.10077513 4.03748336 4.13916016 7.20263672 C4.50195068 8.29366699 4.86474121 9.38469727 5.23852539 10.50878906 C5.61050049 11.68135254 5.98247559 12.85391602 6.36572266 14.06201172 C6.75638916 15.26680176 7.14705566 16.4715918 7.54956055 17.71289062 C23.91271499 68.93228954 23.91271499 68.93228954 15.99072266 85.81201172 C11.58353888 92.40570527 5.90440646 97.20783534 -2.00927734 98.81201172 C-4.81300655 98.93281368 -7.58094805 98.99710336 -10.38427734 98.99951172 C-11.49802734 99.01788086 -11.49802734 99.01788086 -12.63427734 99.03662109 C-17.15605217 99.0486046 -20.74985856 98.52254021 -25.00927734 96.81201172 C-24.67927734 95.49201172 -24.34927734 94.17201172 -24.00927734 92.81201172 C-22.73052734 92.78623047 -21.45177734 92.76044922 -20.13427734 92.73388672 C-18.42591169 92.67756697 -16.71757967 92.62022054 -15.00927734 92.56201172 C-14.17009766 92.54783203 -13.33091797 92.53365234 -12.46630859 92.51904297 C-6.55171827 92.28979528 -1.93219985 91.20497733 2.99072266 87.81201172 C4.87008065 85.92922861 4.87008065 85.92922861 5.92822266 83.81201172 C6.49863281 82.82201172 6.49863281 82.82201172 7.08056641 81.81201172 C12.65916984 69.55344967 8.67273087 51.42883297 5.22119141 39.07373047 C3.86772299 35.485965 2.22488343 32.90798713 -0.00927734 29.81201172 C-3.84316938 31.24972123 -7.42491603 33.01031717 -11.04443359 34.90966797 C-16.13136653 37.24581411 -21.49914298 37.44746165 -27.00927734 36.81201172 C-31.01927173 34.77056003 -33.6482027 32.62192762 -36.00927734 28.81201172 C-36.89946402 23.98154138 -36.97517128 19.05818859 -35.01318359 14.49560547 C-28.65858111 5.29673331 -11.56973448 -6.84062308 0 0 Z " fill="#F9F9FE" transform="translate(982.00927734375,628.18798828125)"/>
<path d="M0 0 C5.69995793 2.69998007 9.55322085 7.20414108 12 13 C12.41528959 15.22370131 12.75119064 17.46277714 13.03515625 19.70703125 C13.20466797 21.01607422 13.37417969 22.32511719 13.54882812 23.67382812 C13.72026841 25.05335855 13.8914906 26.4329161 14.0625 27.8125 C14.23695297 29.18042508 14.41207667 30.5482648 14.58789062 31.91601562 C14.91316867 34.44849243 15.23375995 36.98138198 15.55102539 39.51489258 C15.86318584 41.93799777 16.24535981 44.35268769 16.68139648 46.7565918 C17 50 17 50 15 53 C13.171875 52.77734375 13.171875 52.77734375 11 52 C9.515625 50.00390625 9.515625 50.00390625 8.25 47.5625 C7.82203125 46.75941406 7.3940625 45.95632813 6.953125 45.12890625 C6 43 6 43 6 41 C5.08476563 41.56589844 4.16953125 42.13179687 3.2265625 42.71484375 C2.02606894 43.45577337 0.82554661 44.19665636 -0.375 44.9375 C-0.97828125 45.31068359 -1.5815625 45.68386719 -2.203125 46.06835938 C-7.39589953 49.27057034 -10.08759962 50.19771019 -16.25 50.3125 C-17.55453125 50.34988281 -18.8590625 50.38726563 -20.203125 50.42578125 C-24.65175574 49.92691216 -26.63973914 48.92808858 -30 46 C-34.32755522 39.47650911 -34.14708616 31.53564256 -33 24 C-29.94424086 14.68571011 -24.005651 5.88442987 -15.41015625 0.8828125 C-10.38634447 -0.95735195 -5.23661209 -0.73735868 0 0 Z " fill="#FBFBFE" transform="translate(871,622)"/>
<path d="M0 0 C1.65 0 3.3 0 5 0 C7.31 7.59 9.62 15.18 12 23 C15.22422793 19.77577207 15.21018236 15.4511252 16.0234375 11.06640625 C17 8 17 8 18.8046875 6.09765625 C22.89067362 4.05466319 26.72279478 4.7238923 31 6 C35.47244231 8.87889984 39.03116143 12.59667673 42 17 C42 17.66 42 18.32 42 19 C42.66 19 43.32 19 44 19 C44.04125 18.34 44.0825 17.68 44.125 17 C45.41649242 12.57202597 48.10566385 9.52770233 51 6 C51.61875 5.175 52.2375 4.35 52.875 3.5 C55.53294379 1.62380438 57.75409443 1.36471392 60.98046875 1.57421875 C64.66268192 2.35054609 66.84013206 4.05695048 69 7 C71.01496252 10.89038469 72.56206094 14.86524694 74 19 C74.24878906 19.69351563 74.49757813 20.38703125 74.75390625 21.1015625 C76.60625491 27.18970144 76.39772031 33.70122015 76 40 C75 41 75 41 71.4375 41.0625 C70.303125 41.041875 69.16875 41.02125 68 41 C65.66666667 31.66666667 63.33333333 22.33333333 61 13 C58.59125825 13.08294273 58.59125825 13.08294273 56 14 C54.2168084 16.35695004 54.2168084 16.35695004 52.9375 19.375 C52.43734375 20.45136719 51.9371875 21.52773438 51.421875 22.63671875 C49.71166931 26.68201299 48.17182738 30.75904078 46.76171875 34.91796875 C46 37 46 37 45 38 C42.6875 38.375 42.6875 38.375 40 38 C36.08582018 34.07056022 34.80342208 30.0046263 33.375 24.8125 C32.06220753 19.4495716 32.06220753 19.4495716 29 15 C28.01 15 27.02 15 26 15 C23.88820975 22.68691651 22.44538444 30.24268285 21.52734375 38.1640625 C21 41 21 41 19 43 C16.25 43.5625 16.25 43.5625 13 43 C4.88559257 36.82732735 1.95654842 25.68040836 -0.375 16.25 C-0.55498535 15.54117676 -0.7349707 14.83235352 -0.92041016 14.10205078 C-1.98392721 9.46016276 -2.03130242 5.73185816 -1 1 C-0.67 0.67 -0.34 0.34 0 0 Z " fill="#F9F8FF" transform="translate(543,632)"/>
<path d="M0 0 C5.41355857 4.79838146 7.53350444 10.13594267 8 17.25 C7.83614651 25.32350811 3.28284827 31.84385119 -2.25 37.4375 C-8.86290845 42.59261074 -15.00530509 44.35011298 -23.359375 43.875 C-27.43193242 43.25861293 -29.42225238 42.48276667 -32.25 39.4375 C-36.01950303 32.70709396 -37.58745304 26.44701346 -35.58984375 18.96484375 C-32.64441088 10.51106888 -27.95625226 5.64307002 -20.0625 1.5625 C-13.45786501 -1.57860199 -6.84383719 -3.29030634 0 0 Z " fill="#FAF9FF" transform="translate(532.25,632.5625)"/>
<path d="M0 0 C2.31 0.33 4.62 0.66 7 1 C7.15855469 1.92554688 7.31710938 2.85109375 7.48046875 3.8046875 C7.71564143 5.16154585 7.95137265 6.51830746 8.1875 7.875 C8.37953003 8.98198242 8.37953003 8.98198242 8.57543945 10.11132812 C9.42786123 14.95429948 10.34570047 19.78006656 11.3125 24.6015625 C11.5391333 25.74125488 11.7657666 26.88094727 11.99926758 28.05517578 C12.45031165 30.31279617 12.90823703 32.56905511 13.3737793 34.82373047 C14.60507624 41.01461422 15.24531889 46.68801138 15 53 C15.66 53 16.32 53 17 53 C17.47809948 59.33481811 17.47809948 59.33481811 15.5625 62 C10.71918116 63.89007565 6.38309316 62.96986349 1.6484375 61.04296875 C-4.64128724 57.65225394 -9.20462715 52.92664737 -14.09692383 47.83569336 C-20.50499781 41.26483859 -27.25545527 36.83320544 -36 34 C-35.84853516 34.86165771 -35.69707031 35.72331543 -35.54101562 36.61108398 C-34.97587319 39.84739386 -34.41760739 43.08474202 -33.86376953 46.32299805 C-33.62394844 47.71701852 -33.38149559 49.11058916 -33.13623047 50.50366211 C-30.36577347 66.26134307 -30.36577347 66.26134307 -31 73 C-34 75 -34 75 -36.6875 74.625 C-37.450625 74.41875 -38.21375 74.2125 -39 74 C-44.62461541 58.51339075 -48.00037121 40.13848384 -44 24 C-42.47827113 22.47827113 -41.12019862 22.75743711 -39 22.6875 C-25.54765736 22.94211847 -15.77141623 34.12355024 -6.6796875 42.859375 C-3.05478373 45.75507072 0.90228113 47.84705561 5 50 C4.02244895 38.54540181 2.89107049 27.17827203 0.96557617 15.83886719 C0.09160259 10.49048608 -0.11879413 5.42133233 0 0 Z " fill="#F9F8FF" transform="translate(186,601)"/>
<path d="M0 0 C3.77596893 3.26106407 6.28021402 5.80332673 7.203125 10.85546875 C7.67238029 18.4168779 5.37655994 23.4846529 0.75 29.375 C-3.65521415 33.67008379 -8.38120884 36.55148802 -14.625 36.5625 C-15.82125 36.500625 -17.0175 36.43875 -18.25 36.375 C-14.42961797 40.5137472 -12.38617236 42.20411881 -6.8125 42.5078125 C-5.5440625 42.50394531 -5.5440625 42.50394531 -4.25 42.5 C-3.404375 42.50257813 -2.55875 42.50515625 -1.6875 42.5078125 C0.69173007 42.45834931 0.69173007 42.45834931 2.703125 41.87109375 C5.34248935 41.23140048 7.78819787 41.28021664 10.5 41.3125 C11.48484375 41.32152344 12.4696875 41.33054687 13.484375 41.33984375 C14.60585938 41.35724609 14.60585938 41.35724609 15.75 41.375 C16.245 43.85 16.245 43.85 16.75 46.375 C10.61458231 51.65827634 5.81620399 51.60204587 -2 51.6875 C-2.86882812 51.71650391 -3.73765625 51.74550781 -4.6328125 51.77539062 C-11.7042194 51.84440586 -16.68235648 50.19266737 -22.23828125 45.8046875 C-27.61954951 39.48685633 -29.8825393 32.01113508 -29.53125 23.7265625 C-28.5572173 15.58256691 -26.42226349 8.07763475 -20.25 2.375 C-13.83557449 -1.81813372 -7.08938009 -3.54469005 0 0 Z " fill="#FAF9FF" transform="translate(337.25,624.625)"/>
<path d="M0 0 C4.03664399 1.85849171 6.33458753 4.93963598 8 9 C9.00393941 15.71054239 8.25156119 21.23309503 4.62890625 26.9921875 C1.03977772 31.41619724 -3.75187594 34.79720905 -9 37 C-11.140625 37.1953125 -11.140625 37.1953125 -13.25 37.125 C-14.4875 37.08375 -15.725 37.0425 -17 37 C-16.67 38.32 -16.34 39.64 -16 41 C-9.48931987 42.89401604 -3.31729043 43.91111649 3.40625 42.4921875 C6.26705005 41.94932484 8.90339846 41.90245058 11.8125 41.9375 C12.78832031 41.94652344 13.76414062 41.95554687 14.76953125 41.96484375 C15.87361328 41.98224609 15.87361328 41.98224609 17 42 C17.495 44.475 17.495 44.475 18 47 C11.86458231 52.28327634 7.06620399 52.22704587 -0.75 52.3125 C-1.61882812 52.34150391 -2.48765625 52.37050781 -3.3828125 52.40039062 C-10.0194552 52.46516266 -15.4997581 51.23421205 -20.49047852 46.62280273 C-25.9798705 40.4035193 -27.56271633 34.79277407 -27.5 26.75 C-27.49427979 25.90606689 -27.48855957 25.06213379 -27.48266602 24.19262695 C-27.26134248 16.46269762 -25.63802346 10.77854797 -20.1796875 5.109375 C-13.88520179 -0.5266917 -8.39662432 -0.91822137 0 0 Z " fill="#FAFAFE" transform="translate(1027,622)"/>
<path d="M0 0 C1.39972508 0.01508394 2.799466 0.02876575 4.19921875 0.04101562 C7.59155844 0.07610879 10.98306775 0.12527735 14.375 0.1875 C14.87 3.6525 14.87 3.6525 15.375 7.1875 C5.805 7.1875 -3.765 7.1875 -13.625 7.1875 C-13.625 13.4575 -13.625 19.7275 -13.625 26.1875 C-3.065 26.1875 7.495 26.1875 18.375 26.1875 C17.375 31.1875 17.375 31.1875 14.625 33.4375 C9.45448123 36.22162549 4.34884629 36.41223242 -1.4375 36.75 C-2.13037109 36.79318359 -2.82324219 36.83636719 -3.53710938 36.88085938 C-5.23288686 36.98611453 -6.92892052 37.08722863 -8.625 37.1875 C-8.21053016 43.11065082 -6.52719887 46.33458814 -3.0625 51.0625 C0.80283916 56.6501603 2.53126045 60.36556337 1.375 67.1875 C0.375 68.1875 0.375 68.1875 -2.3125 68.75 C-6.04710314 68.11582211 -6.44556188 67.72098363 -8.6875 64.875 C-19.78177612 48.21917766 -26.5130199 23.11402408 -25.625 3.1875 C-17.16019465 -0.16940716 -8.95505974 -0.16930493 0 0 Z " fill="#FAF9FF" transform="translate(428.625,607.8125)"/>
<path d="M0 0 C1.1446875 0.1546875 1.1446875 0.1546875 2.3125 0.3125 C2.33828125 1.13492188 2.3640625 1.95734375 2.390625 2.8046875 C2.9808238 14.99037032 2.9808238 14.99037032 9.1875 25.0703125 C11.56285736 26.4588486 12.77874818 26.66163486 15.5 26.5625 C16.27859375 26.53800781 17.0571875 26.51351562 17.859375 26.48828125 C21.07925078 26.25755767 24.26943841 25.89008023 27.46484375 25.43359375 C29.3125 25.3125 29.3125 25.3125 31.3125 26.3125 C31.5 29.1875 31.5 29.1875 31.3125 32.3125 C28.39032591 34.26061606 27.49145468 34.6026309 24.1875 34.91015625 C23.00414062 35.02907227 23.00414062 35.02907227 21.796875 35.15039062 C20.97703125 35.22451172 20.1571875 35.29863281 19.3125 35.375 C17.68721709 35.52960631 16.06220044 35.68704452 14.4375 35.84765625 C13.71820313 35.913479 12.99890625 35.97930176 12.2578125 36.04711914 C10.10072049 36.28026354 10.10072049 36.28026354 7.3125 37.3125 C7.53666052 43.58899443 9.05598709 48.55150609 11.375 54.3125 C13.7385207 60.23059069 15.10586165 64.85226944 14.3125 71.3125 C13.9825 71.6425 13.6525 71.9725 13.3125 72.3125 C10 72.3125 10 72.3125 6.3125 71.3125 C1.45140386 65.53173702 1.22485695 58.59476726 0.3125 51.3125 C-0.00754062 49.12301573 -0.34019882 46.93532589 -0.6875 44.75 C-0.831875 43.79996094 -0.97625 42.84992187 -1.125 41.87109375 C-1.69413237 39.28233191 -2.25122446 37.53529398 -3.6875 35.3125 C-5.74416317 34.34144584 -5.74416317 34.34144584 -8.1875 33.8984375 C-9.074375 33.69476562 -9.96125 33.49109375 -10.875 33.28125 C-11.803125 33.0853125 -12.73125 32.889375 -13.6875 32.6875 C-15.52221304 32.28488242 -17.35563095 31.87630316 -19.1875 31.4609375 C-20.0021875 31.28739746 -20.816875 31.11385742 -21.65625 30.93505859 C-23.6875 30.3125 -23.6875 30.3125 -25.6875 28.3125 C-25.15178571 24.77678571 -25.15178571 24.77678571 -23.6875 23.3125 C-22.34482587 23.22618126 -20.99775678 23.20543527 -19.65234375 23.21484375 C-18.84345703 23.21806641 -18.03457031 23.22128906 -17.20117188 23.22460938 C-16.35103516 23.23298828 -15.50089844 23.24136719 -14.625 23.25 C-13.77099609 23.25451172 -12.91699219 23.25902344 -12.03710938 23.26367188 C-9.92054337 23.27549627 -7.80401315 23.29343231 -5.6875 23.3125 C-5.72230469 22.07113281 -5.75710938 20.82976563 -5.79296875 19.55078125 C-5.82111584 17.90886774 -5.84841501 16.26693954 -5.875 14.625 C-5.90013672 13.80837891 -5.92527344 12.99175781 -5.95117188 12.15039062 C-6.09014638 0.70815656 -6.09014638 0.70815656 0 0 Z " fill="#F8F7FF" transform="translate(272.6875,603.6875)"/>
<path d="M0 0 C0.14695312 1.46759766 0.14695312 1.46759766 0.296875 2.96484375 C1.45335638 14.00316448 1.45335638 14.00316448 6 24 C9.25389988 26.16926659 10.13395957 26.24080049 13.88671875 26.1953125 C15.2934082 26.18564453 15.2934082 26.18564453 16.72851562 26.17578125 C17.70498047 26.15902344 18.68144531 26.14226563 19.6875 26.125 C21.16959961 26.11146484 21.16959961 26.11146484 22.68164062 26.09765625 C25.12133765 26.0740843 27.56054697 26.04118022 30 26 C30.1875 28.875 30.1875 28.875 30 32 C24.58139657 35.61240229 18.40722372 35.118648 12.0625 35.0625 C11.37865234 35.05798828 10.69480469 35.05347656 9.99023438 35.04882812 C8.32678396 35.0371956 6.6633795 35.01926694 5 35 C5.33642671 44.41994785 8.80125615 53.6025123 13 62 C13.09472912 63.51845202 13.1298841 65.04110384 13.125 66.5625 C13.12886719 67.77099609 13.12886719 67.77099609 13.1328125 69.00390625 C13 71 13 71 12 72 C8.6875 72 8.6875 72 5 71 C-0.56724757 64.37948938 -0.51249616 55.44621556 -1.421875 47.15234375 C-1.57140625 45.90582031 -1.7209375 44.65929687 -1.875 43.375 C-1.99617187 42.22773437 -2.11734375 41.08046875 -2.2421875 39.8984375 C-2.77461811 37.00873106 -2.77461811 37.00873106 -4.4921875 35.23828125 C-8.25805462 33.37881104 -12.14962693 32.63577803 -16.25 31.8125 C-17.09046875 31.63525391 -17.9309375 31.45800781 -18.796875 31.27539062 C-20.86267921 30.84110224 -22.9311042 30.41931324 -25 30 C-26.125 25.25 -26.125 25.25 -25 23 C-19.06 23 -13.12 23 -7 23 C-7.15751137 17.30060403 -7.15751137 17.30060403 -7.36035156 11.6027832 C-7.41634076 7.57652779 -7.27412314 5.4621435 -5.171875 1.91796875 C-3 0 -3 0 0 0 Z " fill="#F9F8FE" transform="translate(759,603)"/>
<path d="M0 0 C1.010625 0.66 2.02125 1.32 3.0625 2 C3.0625 2.99 3.0625 3.98 3.0625 5 C2.20527344 5.18175781 1.34804688 5.36351562 0.46484375 5.55078125 C-5.66157308 6.89762599 -11.28095172 8.28957061 -16.9375 11 C-18.360625 11.495 -18.360625 11.495 -19.8125 12 C-20.51375 12.33 -21.215 12.66 -21.9375 13 C-23.13504817 16.59264452 -23.26844958 19.22717474 -22.9375 23 C-19.96554738 27.65175193 -14.94139453 28.47450259 -9.9375 30 C-7.01014846 30.92781795 -4.09777644 31.89508178 -1.1875 32.875 C-0.0878894 33.22377197 -0.0878894 33.22377197 1.03393555 33.57958984 C5.77936033 35.18903504 8.86136067 36.96297322 12.0625 41 C12.80339059 46.10391292 12.4683228 49.74035615 9.5859375 54.20703125 C4.36190022 60.35532128 -3.88336206 67.27096768 -12.17578125 68.26953125 C-14.375 68.3125 -14.375 68.3125 -17.9375 68 C-18.9375 67 -18.9375 67 -19.2421875 64.625 C-18.9375 62 -18.9375 62 -17.3203125 60.375 C-16.57523438 59.92125 -15.83015625 59.4675 -15.0625 59 C-14.25039063 58.50113281 -13.43828125 58.00226562 -12.6015625 57.48828125 C-9.09320654 55.52833459 -5.53338387 53.71007425 -1.90625 51.98046875 C0.01428565 51.15412581 0.01428565 51.15412581 1.0625 50 C1.51463325 45.43180356 1.51463325 45.43180356 0 41.25 C-5.98851511 37.38644186 -12.69829841 35.90525477 -19.53515625 34.16015625 C-24.43986642 32.48771202 -27.90419383 30.13928629 -31.375 26.3125 C-33.49411645 21.81997313 -33.42390434 18.70694708 -31.9375 14 C-28.07057147 6.47183063 -21.39956307 1.96330775 -13.8125 -1.375 C-8.56857676 -2.51498331 -4.7080108 -2.67673195 0 0 Z " fill="#F8F8FF" transform="translate(717.9375,607)"/>
<path d="M0 0 C2.8125 1.875 2.8125 1.875 5 4 C5 4.99 5 5.98 5 7 C0.21131379 9.91485247 -4.46775002 12.03226088 -9.765625 13.875 C-12.43320373 15.21811656 -13.51687146 16.42105674 -15 19 C-15.5518531 21.86747201 -15.28737341 24.0304748 -15 27 C-11.64922918 29.23384721 -10.54362661 29.23992583 -6.6328125 29.23828125 C-5.58222656 29.25439453 -4.53164063 29.27050781 -3.44921875 29.28710938 C-1.24094369 29.30397634 0.96745144 29.3092679 3.17578125 29.30273438 C11.26387588 29.45618048 11.26387588 29.45618048 15.21484375 32.375 C17 35 17 35 17.6875 37.6875 C15.89342099 46.33169885 9.67551834 53.48661643 3 59 C-0.17971073 60.8598308 -2.31041732 61.20497682 -6 61 C-6.859375 58.8359375 -6.859375 58.8359375 -7 56 C-5.12145493 53.94572007 -3.40434117 52.33868048 -1.25 50.625 C3.51358416 46.79632488 5.94904155 43.82067784 8 38 C7.40050537 38.01571045 6.80101074 38.0314209 6.18334961 38.04760742 C3.43483123 38.1104413 0.68646458 38.14914235 -2.0625 38.1875 C-3.47692383 38.22520508 -3.47692383 38.22520508 -4.91992188 38.26367188 C-10.76256622 38.32474481 -14.86025302 37.8509005 -20 35 C-23.37978381 31.44233283 -24.82113163 28.78868375 -25.3125 23.875 C-24.70531979 16.34596539 -21.52373706 10.66593433 -15.99609375 5.578125 C-6.42853422 -1.98605122 -6.42853422 -1.98605122 0 0 Z " fill="#F8F7FF" transform="translate(383,615)"/>
<path d="M0 0 C2.60273452 2.09664725 3.93202583 3.73722693 5.25 6.8125 C4.85 11.2125 4.85 11.2125 3.25 12.8125 C-0.22256915 13.12117281 -2.1372288 13.19951339 -5.125 11.3125 C-5.66125 10.8175 -6.1975 10.3225 -6.75 9.8125 C-11.02961567 12.81279147 -11.02961567 12.81279147 -13.625 17.125 C-13.66625 18.011875 -13.7075 18.89875 -13.75 19.8125 C-13.8428125 21.6378125 -13.8428125 21.6378125 -13.9375 23.5 C-13.91274144 26.77431996 -13.39817769 29.74425229 -12.6875 32.9375 C-11.8204562 36.86648168 -11.70903239 39.85682309 -12.75 43.8125 C-15.39214266 44.88892849 -16.45829919 44.93532139 -19.125 43.8125 C-25.23232596 39.15929927 -28.85053709 33.36991442 -31.9375 26.4375 C-32.27845703 25.68944092 -32.61941406 24.94138184 -32.97070312 24.1706543 C-39.56643535 9.5072699 -39.56643535 9.5072699 -38.75 2.8125 C-38.09 2.1525 -37.43 1.4925 -36.75 0.8125 C-34.8203125 0.890625 -34.8203125 0.890625 -32.75 1.8125 C-31.1171875 3.921875 -31.1171875 3.921875 -29.625 6.5625 C-29.12742187 7.42359375 -28.62984375 8.2846875 -28.1171875 9.171875 C-26.82129429 11.67480017 -25.74523891 14.17748651 -24.75 16.8125 C-24.38648438 16.08804688 -24.02296875 15.36359375 -23.6484375 14.6171875 C-18.68507543 5.07226043 -12.41023711 -5.35896602 0 0 Z " fill="#F9F8FF" transform="translate(1088.75,630.1875)"/>
<path d="M0 0 C6.46479831 3.3567222 10.04566196 7.99956469 12.25 14.875 C14.44270592 22.35246978 14.384556 29.27683369 14 37 C11.69 37 9.38 37 7 37 C6.81824219 35.94941406 6.63648438 34.89882813 6.44921875 33.81640625 C4.82043354 20.12897561 4.82043354 20.12897561 -2 9 C-4.52429495 8.76999802 -4.52429495 8.76999802 -7 10 C-13.04494807 16.75611843 -14.20903722 26.34594286 -14.7890625 35.1015625 C-15 37 -15 37 -16 38 C-19.3125 37.9375 -19.3125 37.9375 -23 37 C-26.66460503 32.47396566 -28.45303876 27.61673359 -30.25 22.125 C-30.518125 21.36058594 -30.78625 20.59617187 -31.0625 19.80859375 C-32.77097587 14.67444942 -33.27093046 10.40629415 -33 5 C-31.02 4.67 -29.04 4.34 -27 4 C-26.72736328 5.03060547 -26.72736328 5.03060547 -26.44921875 6.08203125 C-26.19785156 6.98308594 -25.94648437 7.88414062 -25.6875 8.8125 C-25.44386719 9.70582031 -25.20023438 10.59914063 -24.94921875 11.51953125 C-23.9799181 14.05247738 -23.04990396 15.2716496 -21 17 C-20.9175 15.948125 -20.835 14.89625 -20.75 13.8125 C-19.62238198 8.08044175 -16.90094981 5.44956107 -12.25 2.1875 C-7.86640224 -0.38725259 -5.03578749 -0.73100141 0 0 Z " fill="#FAFAFE" transform="translate(928,635)"/>
<path d="M0 0 C3.70390021 2.02666238 5.65363011 3.48044516 8 7 C8.25 9.5625 8.25 9.5625 8 12 C7.34 12.66 6.68 13.32 6 14 C1.86169011 13.69903201 -0.51847024 13.32101984 -4 11 C-6.68646632 11.20627194 -6.68646632 11.20627194 -9 13 C-11.1710812 18.99631951 -11.82685995 25.07241523 -10.5 31.375 C-9.70783108 35.53388684 -9.73421972 39.77878379 -10 44 C-11 45 -11 45 -13.625 45.5625 C-18.06108663 44.82315223 -19.38029779 43.2417236 -22.13671875 39.80078125 C-28.28018077 30.56626915 -37.74511078 15.34322007 -36 4 C-35.34 3.34 -34.68 2.68 -34 2 C-31.40426896 2.19609897 -30.33013434 2.61655785 -28.62109375 4.6015625 C-26.06574753 8.97010819 -23.86381534 13.29141387 -22 18 C-21.63648438 17.27554688 -21.27296875 16.55109375 -20.8984375 15.8046875 C-15.96090945 6.30944125 -11.80546194 -1.00046288 0 0 Z " fill="#F9F9FF" transform="translate(487,631)"/>
<path d="M0 0 C3.14726521 1.66270615 5.3137505 3.07505502 7.4375 5.9375 C8.16405381 8.60153064 7.78000125 10.37635945 7 13 C6 14 6 14 3.625 14.25 C1 14 1 14 -0.4375 12.4375 C-2.01426196 10.66876876 -2.01426196 10.66876876 -5 10.9375 C-8.14670788 11.75203909 -8.14670788 11.75203909 -9.875 14.375 C-11.61734825 19.98923325 -11.65801693 25.74534705 -10.4921875 31.51171875 C-9.97073325 34.14795966 -9.86696231 36.56541296 -9.875 39.25 C-9.87113281 40.55710937 -9.87113281 40.55710937 -9.8671875 41.890625 C-10 44 -10 44 -11 45 C-13.625 45.5625 -13.625 45.5625 -17 45 C-25.99389282 38.42269053 -31.89302798 23.45047298 -35 13 C-35.29296875 10.03125 -35.29296875 10.03125 -35.1875 7.5 C-35.16042969 6.6440625 -35.13335938 5.788125 -35.10546875 4.90625 C-35.07066406 4.2771875 -35.03585937 3.648125 -35 3 C-33.68 2.67 -32.36 2.34 -31 2 C-26.81231003 7.35093719 -24.29839245 12.61842989 -22 19 C-21.56429687 18.11957031 -21.12859375 17.23914063 -20.6796875 16.33203125 C-15.87108826 6.9542219 -11.79643799 -0.9830365 0 0 Z " fill="#FAFAFE" transform="translate(828,630)"/>
<path d="M0 0 C0.79921875 0.01804687 1.5984375 0.03609375 2.421875 0.0546875 C3.02515625 0.07789063 3.6284375 0.10109375 4.25 0.125 C8.20918211 6.96933077 8.12786468 13.3981345 7.25 21.125 C5.22638147 26.91047348 1.61518522 30.20913847 -3.75 33.125 C-6.63495206 34.08665069 -8.73593354 34.35228086 -11.75 34.4375 C-12.61625 34.47488281 -13.4825 34.51226563 -14.375 34.55078125 C-16.75 34.125 -16.75 34.125 -18.53515625 32.42578125 C-21.14521671 27.48261208 -20.38162817 21.71918711 -19.09375 16.4296875 C-16.71970972 9.73734982 -12.91706945 4.68283531 -6.828125 0.9453125 C-4.40606801 -0.01076263 -2.59380834 -0.07628848 0 0 Z " fill="#A49EFB" transform="translate(865.75,629.875)"/>
<path d="M0 0 C2.47896439 2.54420029 3.86072421 4.51712247 4.19921875 8.12109375 C3.76493013 15.28065179 0.63085015 20.56165108 -4.5625 25.375 C-5.366875 25.91125 -6.17125 26.4475 -7 27 C-7.598125 27.4125 -8.19625 27.825 -8.8125 28.25 C-12.22859455 29.42123242 -15.43648583 29.56957809 -19 29 C-21.5 27.5 -21.5 27.5 -23 25 C-23.83259445 20.00443329 -23.51795681 17.17506267 -20.625 13 C-15.87343112 7.25946822 -8.0784794 -1.34641323 0 0 Z " fill="#BAB1FF" transform="translate(528,639)"/>
<path d="M0 0 C2.47896439 2.54420029 3.86072421 4.51712247 4.19921875 8.12109375 C3.76435452 15.29014113 0.63822925 20.61303067 -4.625 25.375 C-9.77928147 28.90161363 -12.79466012 29.87367601 -19 29 C-21.5625 27.5 -21.5625 27.5 -23 25 C-23.84161558 19.95030652 -23.4974593 17.14781766 -20.5625 12.9375 C-16.06915831 7.51339467 -7.52655918 -1.46859691 0 0 Z " fill="#C1B6FF" transform="translate(234,639)"/>
<path d="M0 0 C2 2 2 2 2.5625 5.5625 C2.42567982 11.34052145 -1.1309708 15.02154371 -5 19 C-8.2094449 21.6854539 -9.9995162 22.85993227 -14.125 23.4375 C-17.48112177 22.92678582 -18.80103641 22.60617907 -21 20 C-22.23619531 15.28700539 -22.58008451 13.23267959 -20.5 8.8125 C-15.69356083 3.40525593 -7.71183856 -3.4274838 0 0 Z " fill="#A39DF9" transform="translate(975,636)"/>
<path d="M0 0 C2.32270967 2.12220578 3.69068977 4.05643838 5.0078125 6.90625 C5.35457031 7.65003906 5.70132813 8.39382813 6.05859375 9.16015625 C6.41050781 9.93230469 6.76242187 10.70445312 7.125 11.5 C7.48464844 12.27214844 7.84429688 13.04429687 8.21484375 13.83984375 C11.03723257 19.93916342 12.11046697 24.26151466 12 31 C9.93816367 31.08150744 7.87538651 31.1394194 5.8125 31.1875 C4.08966797 31.23970703 4.08966797 31.23970703 2.33203125 31.29296875 C-1.32702337 30.97124648 -3.13653224 30.26778286 -6 28 C-8.71590312 19.53277262 -5.05730315 10.30074326 -1.359375 2.5703125 C-0.91078125 1.72210937 -0.4621875 0.87390625 0 0 Z " fill="#B5ACFF" transform="translate(647,604)"/>
<path d="M0 0 C2 1.4375 2 1.4375 3 4 C3.38365612 9.01560192 2.75096589 12.09884093 -0.5 16 C-4.29286871 18.6920117 -8.46425294 18.88912618 -13 19 C-15.49232883 15.26150675 -15.19190747 13.58935099 -14.6171875 9.29296875 C-13.61399067 5.56590203 -11.74503289 3.67808087 -9 1 C-5.9167365 -0.54163175 -3.39121901 -0.29747535 0 0 Z " fill="#AAA4FD" transform="translate(1024,630)"/>
<path d="M0 0 C2 1.4375 2 1.4375 3 4 C3.38365612 9.01560192 2.75096589 12.09884093 -0.5 16 C-4.23792218 18.63746334 -8.49794868 19.13269204 -13 19 C-14.71039781 17.28960219 -14.29301542 15.14906044 -14.375 12.8125 C-14.35453671 8.87843174 -14.17147029 6.43825397 -11.625 3.375 C-7.6603108 -0.21209975 -5.34592171 -0.4689405 0 0 Z " fill="#BEB3FF" transform="translate(333,632)"/>
<path d="M0 0 C0.33 0 0.66 0 1 0 C1 2.97 1 5.94 1 9 C1.66 9 2.32 9 3 9 C3 11.31 3 13.62 3 16 C2.01 16.33 1.02 16.66 0 17 C0 11.39 0 5.78 0 0 Z " fill="#D8D0FF" transform="translate(200,645)"/>
</svg>
